<svg id="Layer_1" data-name="Layer 1" xmlns="http://www.w3.org/2000/svg" xmlns:xlink="http://www.w3.org/1999/xlink" viewBox="0 0 405.94 166.87"><defs><style>.cls-1{fill:#414042;}.cls-2{fill:url(#linear-gradient);}.cls-3{fill:url(#linear-gradient-2);}.cls-4{fill:url(#linear-gradient-3);}.cls-5{fill:url(#linear-gradient-4);}.cls-6{fill:url(#linear-gradient-5);}.cls-7{fill:url(#linear-gradient-6);}.cls-8{fill:url(#linear-gradient-7);}.cls-9{fill:url(#linear-gradient-8);}.cls-10{fill:url(#linear-gradient-9);}.cls-11{fill:url(#linear-gradient-10);}.cls-12{fill:url(#linear-gradient-11);}.cls-13{fill:url(#linear-gradient-12);}.cls-14{fill:url(#linear-gradient-13);}.cls-15{fill:url(#linear-gradient-14);}.cls-16{fill:url(#linear-gradient-15);}.cls-17{fill:url(#linear-gradient-16);}.cls-18{fill:url(#linear-gradient-17);}.cls-19{fill:url(#linear-gradient-18);}.cls-20{fill:#008c44;}</style><linearGradient id="linear-gradient" x1="399.29" y1="141.86" x2="271.24" y2="79.26" gradientUnits="userSpaceOnUse"><stop offset="0.03" stop-color="#ef3924"/><stop offset="0.26" stop-color="#f7d64b"/><stop offset="0.5" stop-color="#97c73d"/><stop offset="0.74" stop-color="#35b2e7"/><stop offset="1" stop-color="#34679a"/></linearGradient><linearGradient id="linear-gradient-2" x1="459.55" y1="191.99" x2="258.95" y2="93.92" xlink:href="#linear-gradient"/><linearGradient id="linear-gradient-3" x1="403.25" y1="133.82" x2="275.14" y2="71.19" xlink:href="#linear-gradient"/><linearGradient id="linear-gradient-4" x1="416.75" y1="105.84" x2="288.7" y2="43.23" xlink:href="#linear-gradient"/><linearGradient id="linear-gradient-5" x1="425.3" y1="88.21" x2="297.23" y2="25.6" xlink:href="#linear-gradient"/><linearGradient id="linear-gradient-6" x1="433.84" y1="70.58" x2="305.83" y2="8" xlink:href="#linear-gradient"/><linearGradient id="linear-gradient-7" x1="416.39" y1="106.58" x2="288.36" y2="43.98" xlink:href="#linear-gradient"/><linearGradient id="linear-gradient-8" x1="424.99" y1="88.85" x2="296.93" y2="26.24" xlink:href="#linear-gradient"/><linearGradient id="linear-gradient-9" x1="433.58" y1="71.11" x2="305.55" y2="8.52" xlink:href="#linear-gradient"/><linearGradient id="linear-gradient-10" x1="413.08" y1="113.41" x2="285.04" y2="50.81" xlink:href="#linear-gradient"/><linearGradient id="linear-gradient-11" x1="422.13" y1="94.73" x2="294.1" y2="32.14" xlink:href="#linear-gradient"/><linearGradient id="linear-gradient-12" x1="431.19" y1="76.06" x2="303.15" y2="13.46" xlink:href="#linear-gradient"/><linearGradient id="linear-gradient-13" x1="406.97" y1="125.98" x2="278.95" y2="63.39" xlink:href="#linear-gradient"/><linearGradient id="linear-gradient-14" x1="416.91" y1="105.59" x2="288.82" y2="42.96" xlink:href="#linear-gradient"/><linearGradient id="linear-gradient-15" x1="426.81" y1="85.17" x2="298.71" y2="22.54" xlink:href="#linear-gradient"/><linearGradient id="linear-gradient-16" x1="410.22" y1="119.23" x2="282.22" y2="56.65" xlink:href="#linear-gradient"/><linearGradient id="linear-gradient-17" x1="421.21" y1="96.64" x2="293.16" y2="34.04" xlink:href="#linear-gradient"/><linearGradient id="linear-gradient-18" x1="415.28" y1="108.84" x2="287.25" y2="46.25" xlink:href="#linear-gradient"/></defs><path class="cls-1" d="M14.49,173.17V122.42c0-8,2-14.08,6.1-18.11s10.16-6.06,18.17-6.06H50.7v6.16H37.6c-5.53,0-9.73,1.38-12.47,4.11S21,115.43,21,120.94v11.64H50.7v6.06H21v34.53Z" transform="translate(-14.49 -43.58)"/><path class="cls-1" d="M15.47,172.18V122.42q0-11.62,5.81-17.4t17.48-5.78h11v4.17H37.6q-8.75,0-13.16,4.41T20,120.94v12.63h29.7v4.08H20v34.53Z" transform="translate(-14.49 -43.58)"/><path class="cls-1" d="M82.3,174.09a26.42,26.42,0,0,1-10.23-2,23.78,23.78,0,0,1-8.27-5.82,26.83,26.83,0,0,1-5.35-8.6,28,28,0,0,1-1.83-10.11c0-7.63,2.43-14,7.22-19A24.35,24.35,0,0,1,82.1,121a25,25,0,0,1,12.61,3.29,26.34,26.34,0,0,1,9.44,9.41,22.63,22.63,0,0,1,2.7,7.16,47.67,47.67,0,0,1,.83,9.5v22.79h-6.21V150.08c0-7.13-1.76-12.86-5.24-17s-8-6.19-13.93-6.19a18.18,18.18,0,0,0-13.73,5.85A20.75,20.75,0,0,0,63,147.48c0,6,1.84,10.94,5.46,14.8a18.19,18.19,0,0,0,13.81,5.8,19.19,19.19,0,0,0,8.61-2,24.82,24.82,0,0,0,7.53-6l1.71-1.95v8.65l-.31.29a26.08,26.08,0,0,1-8.17,5.21,25.6,25.6,0,0,1-9.37,1.72Z" transform="translate(-14.49 -43.58)"/><path class="cls-1" d="M102.46,172.18v-22.1q0-11.12-5.48-17.66T82.3,125.88A19.05,19.05,0,0,0,67.85,132,21.65,21.65,0,0,0,62,147.48q0,9.38,5.74,15.49a19.06,19.06,0,0,0,14.52,6.11,20.2,20.2,0,0,0,9-2.07,25.44,25.44,0,0,0,7.82-6.18v5.6a25.11,25.11,0,0,1-7.85,5,24.57,24.57,0,0,1-9,1.65,25.21,25.21,0,0,1-9.85-1.91,22.43,22.43,0,0,1-7.93-5.58,25.55,25.55,0,0,1-5.15-8.27,27,27,0,0,1-1.77-9.76q0-11.1,6.95-18.34A23.3,23.3,0,0,1,82.1,122a24,24,0,0,1,12.12,3.15,25.49,25.49,0,0,1,9.1,9.07,22.18,22.18,0,0,1,2.57,6.86,46.17,46.17,0,0,1,.81,9.29v21.8Z" transform="translate(-14.49 -43.58)"/><path class="cls-1" d="M146.25,173.17c-9,0-16.29-2.32-21.6-6.91s-8.07-10.91-8.07-18.68a25.07,25.07,0,0,1,2.89-11.87A25.38,25.38,0,0,1,135.55,123a44,44,0,0,1,10.7-1.09h4.67v5.85h-5.53c-6.66,0-12.12,1.86-16.24,5.53a19.51,19.51,0,0,0,0,28.47c4.14,3.67,9.6,5.53,16.22,5.53h5.53v5.85Z" transform="translate(-14.49 -43.58)"/><path class="cls-1" d="M149.94,126.8h-4.55q-10.41,0-16.89,5.78a20.48,20.48,0,0,0,0,29.95q6.53,5.79,16.87,5.78h4.55v3.87h-3.69q-13.23,0-21-6.67t-7.73-17.93a23.92,23.92,0,0,1,2.78-11.41,24.36,24.36,0,0,1,7.88-8.76,23.92,23.92,0,0,1,7.57-3.41,42.37,42.37,0,0,1,10.46-1.08h3.69Z" transform="translate(-14.49 -43.58)"/><path class="cls-1" d="M177.67,173.17c-6.68,0-11.79-1.53-15.17-4.55S157.34,161,157.34,155V108h6.21v14h17.27v6H163.55v26.57c0,4.45,1,7.7,3.12,9.67s5.54,3,10.24,3h3.91v5.95Z" transform="translate(-14.49 -43.58)"/><path class="cls-1" d="M158.33,109h4.24v14h17.27V127H162.57v27.56q0,7.14,3.43,10.39t10.91,3.26h2.93v4h-2.17q-9.71,0-14.52-4.3T158.33,155Z" transform="translate(-14.49 -43.58)"/><path class="cls-1" d="M210.65,174.09a25.06,25.06,0,0,1-9.79-2,24.76,24.76,0,0,1-8.28-5.73,27.43,27.43,0,0,1-5.67-8.71,27.37,27.37,0,0,1,0-20.24,28.53,28.53,0,0,1,5.65-8.74,25.81,25.81,0,0,1,8.29-5.71,25.27,25.27,0,0,1,19.61,0,25.64,25.64,0,0,1,8.27,5.7,26.43,26.43,0,0,1,5.59,8.63,28.19,28.19,0,0,1,0,20.45,26.42,26.42,0,0,1-5.58,8.62,24.81,24.81,0,0,1-18.09,7.69Zm0-47.22a18.06,18.06,0,0,0-13.65,6,21.9,21.9,0,0,0,0,29.3,18.53,18.53,0,0,0,27.23,0,22,22,0,0,0,0-29.31,18,18,0,0,0-13.59-5.93Z" transform="translate(-14.49 -43.58)"/><path class="cls-1" d="M186,147.58a25.79,25.79,0,0,1,1.87-9.75,27.12,27.12,0,0,1,5.46-8.43,24.36,24.36,0,0,1,7.95-5.48,24.21,24.21,0,0,1,18.85,0A24.47,24.47,0,0,1,228,129.4a25.29,25.29,0,0,1,5.38,8.3,27.31,27.31,0,0,1,0,19.71,25.29,25.29,0,0,1-5.38,8.3,24,24,0,0,1-34.75,0,26.54,26.54,0,0,1-5.46-8.4A25.88,25.88,0,0,1,186,147.58Zm4.45-.1a21.54,21.54,0,0,0,5.89,15.33,19.49,19.49,0,0,0,28.66,0,23,23,0,0,0,0-30.67,19.54,19.54,0,0,0-28.66,0A21.51,21.51,0,0,0,190.4,147.48Z" transform="translate(-14.49 -43.58)"/><path class="cls-1" d="M244.43,173.17V121.94h6.1v7.45a20.15,20.15,0,0,1,5.78-5.06,20.46,20.46,0,0,1,10.31-2.6c.36,0,.78,0,1.24,0s1.05.11,1.78.22l.85.12v6H269.2c-1.64-.13-2.69-.2-3.18-.2A13.85,13.85,0,0,0,254.94,133c-2.92,3.39-4.41,7.82-4.41,13.15v27.07Z" transform="translate(-14.49 -43.58)"/><path class="cls-1" d="M245.41,172.18V122.92h4.14v9.63a20.16,20.16,0,0,1,7.25-7.36,19.49,19.49,0,0,1,9.82-2.47c.34,0,.73,0,1.17,0s1,.1,1.71.21v4.12h-.3c-1.58-.13-2.64-.2-3.18-.2a14.94,14.94,0,0,0-11.82,5.39q-4.65,5.42-4.65,13.81v26.08Z" transform="translate(-14.49 -43.58)"/><rect class="cls-1" x="260.35" y="78.36" width="6.21" height="51.24"/><rect class="cls-1" x="261.33" y="79.35" width="4.24" height="49.26"/><path class="cls-1" d="M327.37,173.17V143c0-4.81-1.38-8.75-4.11-11.7a15,15,0,0,0-21.24,0c-2.72,3-4.1,6.89-4.1,11.7v30.18h-6.11V144.32c0-7,1.9-12.75,5.66-16.94s8.89-6.36,15.17-6.36,11.4,2.14,15.18,6.36,5.66,9.89,5.66,16.94v28.85Z" transform="translate(-14.49 -43.58)"/><path class="cls-1" d="M296.94,172.18h-4.15V144.32q0-10.24,5.4-16.28t14.45-6q9,0,14.45,6t5.4,16.28v27.86h-4.14V143q0-7.63-4.37-12.38a16,16,0,0,0-22.68,0q-4.37,4.75-4.36,12.38Z" transform="translate(-14.49 -43.58)"/><path class="cls-1" d="M367.05,196.46a37.43,37.43,0,0,1-7-.73,71.63,71.63,0,0,1-8.12-2.17l-.95-.32,2.11-6.16.92.31a72,72,0,0,0,7.59,2.14,27.89,27.89,0,0,0,5.64.66c5.71,0,10.26-1.77,13.52-5.29s4.94-8.47,4.94-14.7V150.08c0-7.13-1.76-12.86-5.25-17s-8-6.19-13.92-6.19a18.18,18.18,0,0,0-13.73,5.85,20.75,20.75,0,0,0-5.54,14.76c0,6,1.83,10.94,5.46,14.8a18.19,18.19,0,0,0,13.81,5.8,19.22,19.22,0,0,0,8.61-2,24.67,24.67,0,0,0,7.52-6l1.72-1.95v8.64l-.31.3a26.22,26.22,0,0,1-8.16,5.21,25.7,25.7,0,0,1-9.38,1.72,26.42,26.42,0,0,1-10.23-2,23.78,23.78,0,0,1-8.27-5.82,26.83,26.83,0,0,1-5.35-8.6,28,28,0,0,1-1.83-10.11c0-7.63,2.43-14,7.22-19A24.33,24.33,0,0,1,366.34,121,25,25,0,0,1,379,124.31a26.34,26.34,0,0,1,9.44,9.41,22.87,22.87,0,0,1,2.7,7.16,47.74,47.74,0,0,1,.83,9.5V170.2c0,8-2.26,14.45-6.71,19.15s-10.58,7.11-18.16,7.11Z" transform="translate(-14.49 -43.58)"/><path class="cls-1" d="M390.94,170.2q0,11.66-6.44,18.46t-17.45,6.8a35.34,35.34,0,0,1-6.8-.71,66.3,66.3,0,0,1-8-2.14l1.47-4.28a71.65,71.65,0,0,0,7.7,2.17,28.49,28.49,0,0,0,5.84.69q9,0,14.24-5.61t5.21-15.38V150.08q0-11.12-5.49-17.66t-14.67-6.54A19.05,19.05,0,0,0,352.09,132a21.65,21.65,0,0,0-5.81,15.44q0,9.38,5.74,15.49a19.06,19.06,0,0,0,14.52,6.11,20.13,20.13,0,0,0,9-2.07,25.36,25.36,0,0,0,7.83-6.18v5.6a25,25,0,0,1-7.86,5,24.48,24.48,0,0,1-9,1.65,25.21,25.21,0,0,1-9.85-1.91,22.43,22.43,0,0,1-7.93-5.58,25.55,25.55,0,0,1-5.15-8.27,27,27,0,0,1-1.77-9.76q0-11.1,6.94-18.34A23.32,23.32,0,0,1,366.34,122a24,24,0,0,1,12.12,3.15,25.47,25.47,0,0,1,9.09,9.07,21.94,21.94,0,0,1,2.58,6.86,46.17,46.17,0,0,1,.81,9.29Z" transform="translate(-14.49 -43.58)"/><path class="cls-2" d="M299.82,91.16a4.22,4.22,0,1,1-4.22-4.26A4.24,4.24,0,0,1,299.82,91.16Z" transform="translate(-14.49 -43.58)"/><path class="cls-3" d="M282.94,103.2a5,5,0,1,1-5-5.06A5,5,0,0,1,282.94,103.2Z" transform="translate(-14.49 -43.58)"/><path class="cls-4" d="M300.15,82.06a2.76,2.76,0,1,1-2.76-2.78A2.77,2.77,0,0,1,300.15,82.06Z" transform="translate(-14.49 -43.58)"/><path class="cls-5" d="M414.55,100.69a8.32,8.32,0,1,1-8.33-8.38A8.36,8.36,0,0,1,414.55,100.69Z" transform="translate(-14.49 -43.58)"/><path class="cls-6" d="M417.49,80.89a7.17,7.17,0,1,1-7.17-7.23A7.2,7.2,0,0,1,417.49,80.89Z" transform="translate(-14.49 -43.58)"/><path class="cls-7" d="M420.43,61.08a6,6,0,1,1-6-6.07A6,6,0,0,1,420.43,61.08Z" transform="translate(-14.49 -43.58)"/><path class="cls-8" d="M386.55,88.42a7.3,7.3,0,1,1-7.3-7.35A7.33,7.33,0,0,1,386.55,88.42Z" transform="translate(-14.49 -43.58)"/><path class="cls-9" d="M393.36,70.31A6.29,6.29,0,1,1,387.08,64,6.31,6.31,0,0,1,393.36,70.31Z" transform="translate(-14.49 -43.58)"/><path class="cls-10" d="M400.17,52.2a5.28,5.28,0,1,1-5.27-5.32A5.29,5.29,0,0,1,400.17,52.2Z" transform="translate(-14.49 -43.58)"/><path class="cls-11" d="M356.8,82.83a6.27,6.27,0,1,1-6.27-6.33A6.3,6.3,0,0,1,356.8,82.83Z" transform="translate(-14.49 -43.58)"/><path class="cls-12" d="M367.73,65.49A5.41,5.41,0,1,1,362.32,60,5.44,5.44,0,0,1,367.73,65.49Z" transform="translate(-14.49 -43.58)"/><path class="cls-13" d="M378.65,48.16a4.54,4.54,0,1,1-4.54-4.58A4.56,4.56,0,0,1,378.65,48.16Z" transform="translate(-14.49 -43.58)"/><path class="cls-14" d="M326.11,83.89a5.25,5.25,0,1,1-5.24-5.3A5.26,5.26,0,0,1,326.11,83.89Z" transform="translate(-14.49 -43.58)"/><path class="cls-15" d="M341.28,66.4a4.53,4.53,0,1,1-4.52-4.56A4.54,4.54,0,0,1,341.28,66.4Z" transform="translate(-14.49 -43.58)"/><path class="cls-16" d="M356.45,48.92a3.8,3.8,0,1,1-3.8-3.83A3.81,3.81,0,0,1,356.45,48.92Z" transform="translate(-14.49 -43.58)"/><path class="cls-17" d="M318.62,72.67A3.64,3.64,0,1,1,315,69,3.65,3.65,0,0,1,318.62,72.67Z" transform="translate(-14.49 -43.58)"/><path class="cls-18" d="M337.43,54.19a3.06,3.06,0,1,1-3.06-3.09A3.07,3.07,0,0,1,337.43,54.19Z" transform="translate(-14.49 -43.58)"/><path class="cls-19" d="M321.91,62.06a2.32,2.32,0,1,1-2.31-2.33A2.33,2.33,0,0,1,321.91,62.06Z" transform="translate(-14.49 -43.58)"/><path class="cls-20" d="M151.36,210.11V189.19h2.57v20.92Z" transform="translate(-14.49 -43.58)"/><path class="cls-20" d="M157.93,192.15v-3h2.56v3Zm0,18V195h2.56v15.16Z" transform="translate(-14.49 -43.58)"/><path class="cls-20" d="M166.77,210.11h-2.38V189.19H167v7.46a5.08,5.08,0,0,1,4.15-2,6.35,6.35,0,0,1,2.65.57,5.36,5.36,0,0,1,2.05,1.58,7.52,7.52,0,0,1,1.26,2.46,10,10,0,0,1,.46,3.08,8.61,8.61,0,0,1-1.93,6,6,6,0,0,1-4.62,2.13,4.83,4.83,0,0,1-4.21-2.24Zm0-7.69a7.82,7.82,0,0,0,.75,3.94,3.67,3.67,0,0,0,6.19.52,6.71,6.71,0,0,0,1.22-4.36,6.78,6.78,0,0,0-1.17-4.38,3.61,3.61,0,0,0-2.85-1.41,3.68,3.68,0,0,0-2.91,1.46A6.39,6.39,0,0,0,166.74,202.42Z" transform="translate(-14.49 -43.58)"/><path class="cls-20" d="M191,205.23l2.65.33a6.4,6.4,0,0,1-2.33,3.6,7.85,7.85,0,0,1-9.6-.76,8,8,0,0,1-1.95-5.74,8.36,8.36,0,0,1,2-5.93,6.65,6.65,0,0,1,5.1-2.12,6.47,6.47,0,0,1,5,2.07,8.24,8.24,0,0,1,1.93,5.82c0,.16,0,.38,0,.69h-11.3a5.82,5.82,0,0,0,1.41,3.82,4.21,4.21,0,0,0,3.17,1.33,4,4,0,0,0,2.41-.74A5,5,0,0,0,191,205.23Zm-8.43-4.15h8.46a5.2,5.2,0,0,0-1-2.87,3.94,3.94,0,0,0-3.19-1.48,4.07,4.07,0,0,0-3,1.18A4.67,4.67,0,0,0,182.6,201.08Z" transform="translate(-14.49 -43.58)"/><path class="cls-20" d="M196.88,210.11V195h2.31v2.3a6.25,6.25,0,0,1,1.63-2.12,2.81,2.81,0,0,1,1.65-.52,5,5,0,0,1,2.64.83l-.89,2.38a3.64,3.64,0,0,0-1.88-.55,2.49,2.49,0,0,0-1.51.5,2.75,2.75,0,0,0-1,1.41,10.16,10.16,0,0,0-.42,3v7.93Z" transform="translate(-14.49 -43.58)"/><path class="cls-20" d="M216.52,208.24a9.45,9.45,0,0,1-2.75,1.71,7.94,7.94,0,0,1-2.83.5,5.55,5.55,0,0,1-3.84-1.22,4,4,0,0,1-1.33-3.12,4.1,4.1,0,0,1,.5-2,4.23,4.23,0,0,1,1.33-1.48,6.24,6.24,0,0,1,1.85-.84,18.18,18.18,0,0,1,2.28-.38,23.85,23.85,0,0,0,4.58-.89c0-.35,0-.57,0-.67a2.8,2.8,0,0,0-.73-2.21,4.28,4.28,0,0,0-2.92-.87,4.53,4.53,0,0,0-2.67.63,3.87,3.87,0,0,0-1.28,2.25l-2.51-.34a6.33,6.33,0,0,1,1.12-2.61,4.93,4.93,0,0,1,2.27-1.52,10.06,10.06,0,0,1,3.44-.54,8.92,8.92,0,0,1,3.15.46,4.23,4.23,0,0,1,1.79,1.15,4.11,4.11,0,0,1,.8,1.75,14.9,14.9,0,0,1,.13,2.36v3.43a36.6,36.6,0,0,0,.16,4.53,5.6,5.6,0,0,0,.65,1.82H217A5.69,5.69,0,0,1,216.52,208.24Zm-.21-5.74a18.47,18.47,0,0,1-4.2,1,9.14,9.14,0,0,0-2.24.52,2.31,2.31,0,0,0-1,.83,2.29,2.29,0,0,0,.42,2.93,3.34,3.34,0,0,0,2.28.69,5.32,5.32,0,0,0,2.64-.65,4.11,4.11,0,0,0,1.7-1.78,6.29,6.29,0,0,0,.41-2.57Z" transform="translate(-14.49 -43.58)"/><path class="cls-20" d="M236.61,207.81l.37,2.27a9.67,9.67,0,0,1-1.94.23,4.45,4.45,0,0,1-2.17-.44,2.53,2.53,0,0,1-1.08-1.17,9.11,9.11,0,0,1-.32-3V197h-1.88v-2h1.88V191.2l2.56-1.54V195h2.58v2H234v8.86a4.62,4.62,0,0,0,.13,1.42,1.14,1.14,0,0,0,.45.5,1.73,1.73,0,0,0,.88.18A7.74,7.74,0,0,0,236.61,207.81Z" transform="translate(-14.49 -43.58)"/><path class="cls-20" d="M249.05,210.11v-2.23a5.55,5.55,0,0,1-4.81,2.57,6.18,6.18,0,0,1-2.5-.51,4.1,4.1,0,0,1-1.72-1.3,4.69,4.69,0,0,1-.8-1.9,13.36,13.36,0,0,1-.16-2.4V195h2.57v8.41a14.35,14.35,0,0,0,.16,2.71,2.64,2.64,0,0,0,1,1.59,3.21,3.21,0,0,0,1.94.58,4.23,4.23,0,0,0,2.16-.59,3.32,3.32,0,0,0,1.44-1.62,8.08,8.08,0,0,0,.42-3V195h2.57v15.16Z" transform="translate(-14.49 -43.58)"/><path class="cls-20" d="M273.32,210.11V208.2a4.71,4.71,0,0,1-4.24,2.25,5.92,5.92,0,0,1-3.33-1,6.47,6.47,0,0,1-2.35-2.79,9.55,9.55,0,0,1-.84-4.11,10.84,10.84,0,0,1,.76-4.12,6,6,0,0,1,2.27-2.83,6,6,0,0,1,3.38-1,5,5,0,0,1,2.44.58,5.1,5.1,0,0,1,1.74,1.51v-7.51h2.56v20.92Zm-8.11-7.56a6.58,6.58,0,0,0,1.22,4.35,3.7,3.7,0,0,0,2.9,1.44,3.64,3.64,0,0,0,2.86-1.38,6.38,6.38,0,0,0,1.17-4.2,7.2,7.2,0,0,0-1.19-4.57,3.74,3.74,0,0,0-3-1.45,3.57,3.57,0,0,0-2.86,1.4A6.87,6.87,0,0,0,265.21,202.55Z" transform="translate(-14.49 -43.58)"/><path class="cls-20" d="M279.76,192.15v-3h2.56v3Zm0,18V195h2.56v15.16Z" transform="translate(-14.49 -43.58)"/><path class="cls-20" d="M286.23,210.11V195h2.31v2.16a5.47,5.47,0,0,1,4.83-2.5,6.33,6.33,0,0,1,2.52.5,3.84,3.84,0,0,1,1.71,1.29,4.89,4.89,0,0,1,.8,1.89,14.07,14.07,0,0,1,.15,2.5v9.32H296v-9.22a6.92,6.92,0,0,0-.3-2.35,2.54,2.54,0,0,0-1.06-1.24,3.38,3.38,0,0,0-1.79-.46,4.2,4.2,0,0,0-2.84,1c-.79.69-1.19,2-1.19,4v8.28Z" transform="translate(-14.49 -43.58)"/><path class="cls-20" d="M312.86,205.23l2.65.33a6.4,6.4,0,0,1-2.33,3.6,7.85,7.85,0,0,1-9.6-.76,7.94,7.94,0,0,1-1.95-5.74,8.31,8.31,0,0,1,2-5.93,6.65,6.65,0,0,1,5.1-2.12,6.49,6.49,0,0,1,5,2.07,8.24,8.24,0,0,1,1.93,5.82c0,.16,0,.38,0,.69h-11.3a5.87,5.87,0,0,0,1.41,3.82,4.21,4.21,0,0,0,3.17,1.33,4,4,0,0,0,2.41-.74A5,5,0,0,0,312.86,205.23Zm-8.44-4.15h8.46a5.12,5.12,0,0,0-1-2.87,3.94,3.94,0,0,0-3.19-1.48,4.06,4.06,0,0,0-3,1.18A4.67,4.67,0,0,0,304.42,201.08Z" transform="translate(-14.49 -43.58)"/><path class="cls-20" d="M318.71,210.11V195H321v2.3a6.25,6.25,0,0,1,1.63-2.12,2.81,2.81,0,0,1,1.65-.52,5.06,5.06,0,0,1,2.64.83l-.88,2.38a3.7,3.7,0,0,0-1.89-.55,2.49,2.49,0,0,0-1.51.5,2.75,2.75,0,0,0-1,1.41,10.16,10.16,0,0,0-.43,3v7.93Z" transform="translate(-14.49 -43.58)"/><path class="cls-20" d="M327.51,202.53q0-4.2,2.34-6.23a7,7,0,0,1,4.77-1.69,6.8,6.8,0,0,1,5.1,2,7.81,7.81,0,0,1,2,5.66,10.09,10.09,0,0,1-.88,4.6,6.23,6.23,0,0,1-2.56,2.6,7.37,7.37,0,0,1-3.65.93,6.82,6.82,0,0,1-5.15-2A8.14,8.14,0,0,1,327.51,202.53Zm2.64,0a6.45,6.45,0,0,0,1.27,4.36,4.21,4.21,0,0,0,6.37,0,6.59,6.59,0,0,0,1.28-4.44,6.24,6.24,0,0,0-1.28-4.25,4.23,4.23,0,0,0-6.37,0A6.4,6.4,0,0,0,330.15,202.53Z" transform="translate(-14.49 -43.58)"/></svg>